<mxfile host="app.diagrams.net" modified="2021-12-30T03:23:00.614Z" agent="5.0 (Macintosh; Intel Mac OS X 10_12_6) AppleWebKit/537.36 (KHTML, like Gecko) Chrome/96.0.4664.110 Safari/537.36" etag="L7wu5WE6N0LFDddScMb5" version="16.1.0" type="github">
  <diagram id="C5RBs43oDa-KdzZeNtuy" name="Page-1">
    <mxGraphModel dx="1426" dy="1995" grid="1" gridSize="10" guides="1" tooltips="1" connect="1" arrows="1" fold="1" page="1" pageScale="1" pageWidth="827" pageHeight="1169" math="0" shadow="0">
      <root>
        <mxCell id="WIyWlLk6GJQsqaUBKTNV-0" />
        <mxCell id="WIyWlLk6GJQsqaUBKTNV-1" parent="WIyWlLk6GJQsqaUBKTNV-0" />
        <mxCell id="be0niQOfNykOMNaDCtI0-2" value="" style="edgeStyle=orthogonalEdgeStyle;rounded=1;orthogonalLoop=1;jettySize=auto;html=1;sketch=1;" edge="1" parent="WIyWlLk6GJQsqaUBKTNV-1" source="be0niQOfNykOMNaDCtI0-0" target="be0niQOfNykOMNaDCtI0-1">
          <mxGeometry relative="1" as="geometry" />
        </mxCell>
        <mxCell id="be0niQOfNykOMNaDCtI0-0" value="加载mobile-hour-minute组件" style="rounded=1;whiteSpace=wrap;html=1;sketch=1;" vertex="1" parent="WIyWlLk6GJQsqaUBKTNV-1">
          <mxGeometry x="320" y="90" width="120" height="60" as="geometry" />
        </mxCell>
        <mxCell id="be0niQOfNykOMNaDCtI0-6" value="" style="edgeStyle=orthogonalEdgeStyle;rounded=1;orthogonalLoop=1;jettySize=auto;html=1;sketch=1;" edge="1" parent="WIyWlLk6GJQsqaUBKTNV-1" source="be0niQOfNykOMNaDCtI0-1" target="be0niQOfNykOMNaDCtI0-3">
          <mxGeometry relative="1" as="geometry" />
        </mxCell>
        <mxCell id="be0niQOfNykOMNaDCtI0-7" style="edgeStyle=orthogonalEdgeStyle;rounded=1;orthogonalLoop=1;jettySize=auto;html=1;exitX=0.5;exitY=1;exitDx=0;exitDy=0;entryX=0.5;entryY=0;entryDx=0;entryDy=0;sketch=1;" edge="1" parent="WIyWlLk6GJQsqaUBKTNV-1" source="be0niQOfNykOMNaDCtI0-1" target="be0niQOfNykOMNaDCtI0-4">
          <mxGeometry relative="1" as="geometry">
            <mxPoint x="190" y="310" as="targetPoint" />
            <Array as="points">
              <mxPoint x="380" y="290" />
              <mxPoint x="190" y="290" />
            </Array>
          </mxGeometry>
        </mxCell>
        <mxCell id="be0niQOfNykOMNaDCtI0-8" style="edgeStyle=orthogonalEdgeStyle;rounded=1;orthogonalLoop=1;jettySize=auto;html=1;entryX=0.5;entryY=0;entryDx=0;entryDy=0;sketch=1;" edge="1" parent="WIyWlLk6GJQsqaUBKTNV-1" source="be0niQOfNykOMNaDCtI0-1" target="be0niQOfNykOMNaDCtI0-5">
          <mxGeometry relative="1" as="geometry">
            <Array as="points">
              <mxPoint x="380" y="290" />
              <mxPoint x="580" y="290" />
            </Array>
          </mxGeometry>
        </mxCell>
        <mxCell id="be0niQOfNykOMNaDCtI0-1" value="判断渲染组件类型" style="rhombus;whiteSpace=wrap;html=1;rounded=1;sketch=1;" vertex="1" parent="WIyWlLk6GJQsqaUBKTNV-1">
          <mxGeometry x="320" y="190" width="120" height="70" as="geometry" />
        </mxCell>
        <mxCell id="be0niQOfNykOMNaDCtI0-3" value="为空／不为空" style="rounded=1;whiteSpace=wrap;html=1;sketch=1;" vertex="1" parent="WIyWlLk6GJQsqaUBKTNV-1">
          <mxGeometry x="320" y="320" width="120" height="60" as="geometry" />
        </mxCell>
        <mxCell id="be0niQOfNykOMNaDCtI0-4" value="单时分控件 data-picker" style="rounded=1;whiteSpace=wrap;html=1;sketch=1;" vertex="1" parent="WIyWlLk6GJQsqaUBKTNV-1">
          <mxGeometry x="130" y="320" width="120" height="60" as="geometry" />
        </mxCell>
        <mxCell id="be0niQOfNykOMNaDCtI0-5" value="双时分控件 data-picker-range" style="rounded=1;whiteSpace=wrap;html=1;sketch=1;" vertex="1" parent="WIyWlLk6GJQsqaUBKTNV-1">
          <mxGeometry x="520" y="320" width="120" height="60" as="geometry" />
        </mxCell>
        <mxCell id="be0niQOfNykOMNaDCtI0-10" value="" style="edgeStyle=orthogonalEdgeStyle;rounded=1;sketch=1;orthogonalLoop=1;jettySize=auto;html=1;" edge="1" parent="WIyWlLk6GJQsqaUBKTNV-1" source="be0niQOfNykOMNaDCtI0-9" target="be0niQOfNykOMNaDCtI0-1">
          <mxGeometry relative="1" as="geometry" />
        </mxCell>
        <mxCell id="be0niQOfNykOMNaDCtI0-9" value="运算符" style="ellipse;shape=cloud;whiteSpace=wrap;html=1;rounded=0;sketch=1;" vertex="1" parent="WIyWlLk6GJQsqaUBKTNV-1">
          <mxGeometry x="480" y="185" width="120" height="80" as="geometry" />
        </mxCell>
        <mxCell id="be0niQOfNykOMNaDCtI0-13" value="" style="edgeStyle=orthogonalEdgeStyle;rounded=1;sketch=1;orthogonalLoop=1;jettySize=auto;html=1;" edge="1" parent="WIyWlLk6GJQsqaUBKTNV-1" source="be0niQOfNykOMNaDCtI0-11" target="be0niQOfNykOMNaDCtI0-0">
          <mxGeometry relative="1" as="geometry" />
        </mxCell>
        <mxCell id="be0niQOfNykOMNaDCtI0-11" value="uiType == hourminute" style="whiteSpace=wrap;html=1;rounded=1;sketch=1;" vertex="1" parent="WIyWlLk6GJQsqaUBKTNV-1">
          <mxGeometry x="320" y="-20" width="120" height="60" as="geometry" />
        </mxCell>
      </root>
    </mxGraphModel>
  </diagram>
</mxfile>
